<?xml version="1.0" standalone="no"?>
<!DOCTYPE svg PUBLIC "-//W3C//DTD SVG 20010904//EN"
 "http://www.w3.org/TR/2001/REC-SVG-20010904/DTD/svg10.dtd">
<svg version="1.0" xmlns="http://www.w3.org/2000/svg"
 width="183.000000pt" height="183.000000pt" viewBox="0 0 183.000000 183.000000"
 preserveAspectRatio="xMidYMid meet">
<metadata>
Created by potrace 1.14, written by Peter Selinger 2001-2017
</metadata>
<g transform="translate(0.000000,183.000000) scale(0.100000,-0.100000)"
fill="#000000" stroke="none">
<path d="M146 1317 c-13 -13 -38 -29 -55 -36 -40 -17 -91 -75 -91 -105 0 -29
33 -72 60 -79 16 -4 20 -1 18 11 -4 30 11 67 32 80 l21 13 -2 -292 c0 -161 -3
-298 -6 -306 -4 -9 -16 -11 -43 -7 -36 6 -37 5 -33 -20 4 -18 15 -29 39 -38
25 -9 34 -18 34 -35 0 -29 26 -30 79 -3 21 10 48 17 60 15 37 -7 129 27 172
63 98 84 102 223 8 288 l-40 28 28 15 c107 58 155 155 126 253 -26 89 -122
144 -262 151 -39 2 -66 8 -69 15 -6 20 -52 13 -76 -11z m221 -112 c119 -50
108 -184 -22 -261 -24 -13 -53 -27 -65 -29 -12 -2 -30 -7 -41 -10 -22 -7 -21
-16 -21 160 0 186 -7 167 57 160 31 -3 72 -12 92 -20z m-32 -369 c48 -20 74
-67 68 -119 -6 -52 -16 -71 -56 -100 -25 -19 -113 -51 -118 -43 0 0 -3 63 -5
139 l-5 137 41 0 c22 0 56 -6 75 -14z"/>
<path d="M1315 1278 c-11 -6 -22 -12 -24 -14 -2 -2 -3 -149 -2 -326 2 -369 0
-361 79 -334 12 4 20 12 16 17 -3 6 -8 38 -11 72 l-5 63 39 26 c56 37 75 18
88 -82 9 -72 39 -136 68 -144 34 -9 73 -7 104 5 l28 10 -33 16 c-50 24 -79 69
-95 151 -12 56 -21 78 -41 93 l-26 21 34 40 c37 43 66 96 66 122 0 11 -9 16
-28 16 -38 0 -68 -24 -75 -58 -6 -30 -100 -142 -119 -142 -7 0 -8 37 -4 108 3
59 9 162 12 230 l6 122 -28 0 c-16 0 -38 -6 -49 -12z"/>
<path d="M1723 1182 c-41 -6 -68 -73 -45 -109 22 -35 91 -14 117 37 23 45 -14
81 -72 72z m27 -77 c-14 -17 -40 -20 -40 -6 0 6 10 17 22 26 26 17 37 3 18
-20z"/>
<path d="M662 989 c-99 -91 -117 -263 -38 -355 27 -31 39 -37 81 -41 62 -6
108 22 144 87 21 37 25 58 24 125 0 88 -16 137 -58 179 -29 29 -37 31 -68 15
-16 -9 -22 -9 -25 0 -6 18 -36 13 -60 -10z m125 -80 c19 -39 21 -109 6 -169
-16 -65 -37 -90 -73 -90 -22 0 -31 8 -44 35 -25 51 -23 152 3 207 17 35 20 38
17 16 -2 -16 1 -28 5 -28 5 0 9 4 9 10 0 14 43 51 55 47 5 -2 15 -15 22 -28z"/>
<path d="M997 978 c-45 -49 -70 -113 -72 -190 -3 -79 17 -131 66 -172 28 -24
40 -28 80 -24 97 10 153 87 152 213 0 77 -24 146 -64 183 -27 26 -46 28 -71 5
-17 -15 -18 -15 -18 0 0 28 -40 19 -73 -15z m131 -50 c28 -35 31 -154 6 -217
-57 -144 -155 -31 -120 139 13 62 40 111 30 54 l-5 -29 30 33 c33 35 43 39 59
20z"/>
<path d="M1720 996 l-45 -11 -1 -183 c-1 -204 4 -224 52 -207 26 9 28 14 30
75 2 61 4 91 20 261 3 37 2 69 -2 71 -5 3 -29 0 -54 -6z"/>
</g>
</svg>
